<svg width="257" height="53" viewBox="0 0 257 53" fill="none" xmlns="http://www.w3.org/2000/svg">
<path d="M26.8104 2.37752V52H14.8478V2.37752H26.8104ZM41.738 2.37752V11.6136H0.261011V2.37752H41.738ZM58.8401 15.124V52H47.3206V15.124H58.8401ZM46.6389 5.61525C46.6389 3.97934 47.2297 2.63881 48.4112 1.59365C49.5927 0.548487 51.1263 0.0259056 53.0122 0.0259056C54.898 0.0259056 56.4317 0.548487 57.6131 1.59365C58.7946 2.63881 59.3854 3.97934 59.3854 5.61525C59.3854 7.25116 58.7946 8.59169 57.6131 9.63685C56.4317 10.682 54.898 11.2046 53.0122 11.2046C51.1263 11.2046 49.5927 10.682 48.4112 9.63685C47.2297 8.59169 46.6389 7.25116 46.6389 5.61525ZM77.9529 22.9286V52H66.4675V15.124H77.2372L77.9529 22.9286ZM76.5556 32.301L73.9313 32.3691C73.9313 29.7789 74.238 27.3932 74.8515 25.212C75.465 23.0308 76.3738 21.1336 77.578 19.5205C78.7822 17.9073 80.2591 16.6576 82.0086 15.7715C83.7808 14.8854 85.8257 14.4423 88.1432 14.4423C89.7564 14.4423 91.2219 14.6923 92.5397 15.1921C93.8575 15.6693 94.9936 16.4304 95.9479 17.4756C96.9022 18.498 97.6292 19.8385 98.1291 21.4972C98.6517 23.1331 98.913 25.0984 98.913 27.3932V52H87.4275V28.8587C87.4275 27.291 87.2458 26.1095 86.8822 25.3143C86.5414 24.5191 86.0416 23.9851 85.3826 23.7125C84.7237 23.4398 83.9171 23.3035 82.9629 23.3035C81.9631 23.3035 81.0657 23.5307 80.2704 23.9851C79.4752 24.4395 78.7936 25.0757 78.2256 25.8937C77.6803 26.6889 77.2599 27.6318 76.9645 28.7224C76.6919 29.813 76.5556 31.0059 76.5556 32.301ZM97.6179 32.301L94.4142 32.3691C94.4142 29.7789 94.6982 27.3932 95.2662 25.212C95.857 23.0308 96.7317 21.1336 97.8905 19.5205C99.072 17.9073 100.537 16.6576 102.287 15.7715C104.037 14.8854 106.07 14.4423 108.388 14.4423C110.069 14.4423 111.614 14.6923 113.023 15.1921C114.431 15.692 115.647 16.4986 116.669 17.6119C117.692 18.7252 118.487 20.2021 119.055 22.0425C119.623 23.8601 119.907 26.1095 119.907 28.7906V52H108.388V28.7906C108.388 27.2683 108.206 26.1209 107.842 25.3484C107.501 24.5531 107.002 24.0192 106.343 23.7465C105.684 23.4512 104.9 23.3035 103.991 23.3035C102.9 23.3035 101.958 23.5307 101.162 23.9851C100.367 24.4395 99.6968 25.0757 99.1515 25.8937C98.6289 26.6889 98.2427 27.6318 97.9928 28.7224C97.7428 29.813 97.6179 31.0059 97.6179 32.301ZM144.78 52.6816C141.781 52.6816 139.099 52.2158 136.736 51.2843C134.373 50.33 132.374 49.0236 130.738 47.3649C129.125 45.7063 127.887 43.7977 127.023 41.6393C126.183 39.4808 125.762 37.1973 125.762 34.7889V33.4938C125.762 30.79 126.137 28.2907 126.887 25.9959C127.637 23.6784 128.75 21.6562 130.227 19.9294C131.704 18.2026 133.556 16.8621 135.782 15.9078C138.009 14.9308 140.599 14.4423 143.553 14.4423C146.166 14.4423 148.506 14.8627 150.573 15.7033C152.641 16.544 154.391 17.7482 155.822 19.316C157.276 20.8837 158.378 22.7809 159.128 25.0076C159.9 27.2342 160.287 29.7335 160.287 32.5055V37.1746H130.159V29.9834H149.074V29.0973C149.097 27.8704 148.881 26.8252 148.426 25.9618C147.995 25.0984 147.358 24.4395 146.518 23.9851C145.677 23.5307 144.655 23.3035 143.45 23.3035C142.201 23.3035 141.167 23.5761 140.349 24.1214C139.554 24.6667 138.929 25.4165 138.475 26.3708C138.043 27.3024 137.736 28.3816 137.554 29.6085C137.373 30.8355 137.282 32.1306 137.282 33.4938V34.7889C137.282 36.1522 137.464 37.3905 137.827 38.5038C138.213 39.6171 138.759 40.5714 139.463 41.3666C140.19 42.1391 141.053 42.7412 142.053 43.1729C143.076 43.6046 144.234 43.8205 145.529 43.8205C147.097 43.8205 148.642 43.5251 150.165 42.9344C151.687 42.3436 152.993 41.3666 154.084 40.0034L159.298 46.2062C158.549 47.274 157.481 48.3079 156.095 49.3076C154.731 50.3073 153.096 51.1252 151.187 51.7614C149.278 52.3749 147.143 52.6816 144.78 52.6816ZM207.926 26.2004V28.2112C207.926 32.0056 207.392 35.4137 206.324 38.4356C205.279 41.4348 203.79 44.0022 201.859 46.138C199.928 48.251 197.644 49.8756 195.009 51.0116C192.373 52.125 189.465 52.6816 186.284 52.6816C183.08 52.6816 180.149 52.125 177.491 51.0116C174.855 49.8756 172.561 48.251 170.607 46.138C168.675 44.0022 167.176 41.4348 166.108 38.4356C165.063 35.4137 164.54 32.0056 164.54 28.2112V26.2004C164.54 22.406 165.063 18.9979 166.108 15.976C167.176 12.9541 168.664 10.3866 170.572 8.2736C172.504 6.13783 174.787 4.51329 177.423 3.39996C180.081 2.26392 183.012 1.69589 186.216 1.69589C189.397 1.69589 192.305 2.26392 194.941 3.39996C197.599 4.51329 199.894 6.13783 201.825 8.2736C203.756 10.3866 205.256 12.9541 206.324 15.976C207.392 18.9979 207.926 22.406 207.926 26.2004ZM195.793 28.2112V26.1322C195.793 23.6784 195.577 21.5199 195.145 19.6568C194.736 17.7709 194.123 16.1918 193.305 14.9195C192.487 13.6471 191.476 12.6928 190.271 12.0566C189.09 11.3977 187.738 11.0683 186.216 11.0683C184.625 11.0683 183.239 11.3977 182.058 12.0566C180.876 12.6928 179.888 13.6471 179.093 14.9195C178.298 16.1918 177.695 17.7709 177.286 19.6568C176.9 21.5199 176.707 23.6784 176.707 26.1322V28.2112C176.707 30.6423 176.9 32.8008 177.286 34.6867C177.695 36.5498 178.298 38.1289 179.093 39.424C179.911 40.7191 180.91 41.6961 182.092 42.355C183.296 43.0139 184.693 43.3433 186.284 43.3433C187.806 43.3433 189.158 43.0139 190.34 42.355C191.521 41.6961 192.509 40.7191 193.305 39.424C194.123 38.1289 194.736 36.5498 195.145 34.6867C195.577 32.8008 195.793 30.6423 195.793 28.2112ZM256.008 2.37752V52H244.079L226.527 21.1223V52H214.565V2.37752H226.527L244.079 33.2552V2.37752H256.008Z" fill="url(#paint0_linear_2_739)"/>
<defs>
<linearGradient id="paint0_linear_2_739" x1="11.9208" y1="28" x2="260" y2="28" gradientUnits="userSpaceOnUse">
<stop stop-color="#42A0E9"/>
<stop offset="1" stop-color="#80CBFA"/>
</linearGradient>
</defs>
</svg>
